<svg width="64" height="64" viewBox="0 0 64 64" fill="none" xmlns="http://www.w3.org/2000/svg">
<g clip-path="url(#clip0_60_484)">
<path d="M49 0H15C6.71573 0 0 6.71573 0 15V49C0 57.2843 6.71573 64 15 64H49C57.2843 64 64 57.2843 64 49V15C64 6.71573 57.2843 0 49 0Z" fill="#0277BD"/>
<path d="M13.438 25.6627L14.1537 33.6482H32.0238V25.6627H13.438Z" fill="#EBEBEB"/>
<path d="M32.0238 9.5H31.9963H12L12.7259 17.4856H32.0238V9.5Z" fill="#EBEBEB"/>
<path d="M32.0239 54.7102V46.402L31.9889 46.4112L23.0954 44.01L22.5269 37.641H18.2054H14.5107L15.6295 50.1795L31.9871 54.7205L32.0239 54.7102Z" fill="#EBEBEB"/>
<path d="M41.8293 33.6483L40.9023 44.0047L31.9961 46.4087V54.7165L48.3668 50.1795L48.4868 48.8302L50.3633 27.8072L50.5581 25.6628L51.9998 9.5H31.9961V17.4856H43.2483L42.5218 25.6628H31.9961V33.6483H41.8293Z" fill="white"/>
</g>
<defs>
<clipPath id="clip0_60_484">
<rect width="64" height="64" fill="white"/>
</clipPath>
</defs>
</svg>
