<svg width="64" height="64" viewBox="0 0 64 64" fill="none" xmlns="http://www.w3.org/2000/svg">
<g clip-path="url(#clip0_44_525)">
<path d="M49 0H15C6.71573 0 0 6.71573 0 15V49C0 57.2843 6.71573 64 15 64H49C57.2843 64 64 57.2843 64 49V15C64 6.71573 57.2843 0 49 0Z" fill="#F03C2E"/>
<mask id="mask0_44_525" style="mask-type:luminance" maskUnits="userSpaceOnUse" x="7" y="7" width="50" height="50">
<path d="M57 7H7V57H57V7Z" fill="white"/>
</mask>
<g mask="url(#mask0_44_525)">
<path d="M56.0562 29.7734L34.2264 7.94369C33.9277 7.64462 33.5727 7.40739 33.1822 7.24554C32.7914 7.08367 32.3727 7.00037 31.9499 7.00037C31.5272 7.00037 31.1084 7.08367 30.7177 7.24554C30.3272 7.40739 29.9722 7.64462 29.6734 7.94369L25.1422 12.4749L30.8922 18.2249C32.2297 17.7562 33.7609 18.0765 34.8264 19.1421C35.3337 19.6503 35.6879 20.2909 35.8484 20.9907C36.0089 21.6906 35.9694 22.4215 35.7342 23.0999L41.2764 28.6422C42.6172 28.1797 44.1639 28.4779 45.2342 29.5514C45.5902 29.9074 45.8724 30.3299 46.0649 30.7949C46.2574 31.2599 46.3564 31.7582 46.3564 32.2614C46.3562 32.7647 46.2572 33.2629 46.0644 33.7279C45.8717 34.1927 45.5894 34.6152 45.2334 34.9709C44.8777 35.3269 44.4552 35.6089 43.9902 35.8014C43.5252 35.9942 43.0269 36.0932 42.5237 36.0929C42.0204 36.0929 41.5219 35.9937 41.0572 35.8012C40.5922 35.6084 40.1697 35.3262 39.8139 34.9702C38.6889 33.8452 38.4109 32.1889 38.9797 30.8029L33.8109 25.6342V39.2359C34.1862 39.4214 34.5289 39.6664 34.8264 39.9609C35.1822 40.3167 35.4644 40.7389 35.6572 41.2039C35.8497 41.6687 35.9487 42.1669 35.9487 42.6702C35.9487 43.1734 35.8497 43.6717 35.6572 44.1364C35.4644 44.6014 35.1822 45.0239 34.8264 45.3797C34.4707 45.7354 34.0482 46.0177 33.5834 46.2102C33.1184 46.4027 32.6202 46.5019 32.1172 46.5019C31.6139 46.5019 31.1157 46.4027 30.6509 46.2102C30.1859 46.0177 29.7634 45.7354 29.4077 45.3797C29.0514 45.0239 28.7689 44.6017 28.5762 44.1369C28.3832 43.6719 28.2839 43.1734 28.2839 42.6702C28.2839 42.1669 28.3832 41.6687 28.5762 41.2037C28.7689 40.7387 29.0514 40.3164 29.4077 39.9609C29.7779 39.5922 30.1889 39.3124 30.6624 39.1249V25.3967C30.2062 25.2092 29.7779 24.9327 29.4077 24.5609C28.8697 24.0235 28.5039 23.3381 28.3569 22.592C28.2102 21.846 28.2887 21.073 28.5827 20.3718L22.9109 14.7031L7.94212 29.6562C7.64285 29.9552 7.40542 30.3102 7.24342 30.7009C7.08142 31.0917 6.99805 31.5104 6.99805 31.9334C6.99805 32.3564 7.08142 32.7754 7.24342 33.1662C7.40542 33.5569 7.64285 33.9119 7.94212 34.2109L29.7734 56.0389C30.0722 56.3379 30.4272 56.5752 30.8177 56.7372C31.2084 56.8989 31.6272 56.9822 32.0499 56.9822C32.4727 56.9822 32.8914 56.8989 33.2822 56.7372C33.6727 56.5752 34.0277 56.3379 34.3264 56.0389L56.0562 34.3437C56.3554 34.0447 56.5929 33.6897 56.7549 33.2989C56.9169 32.9082 57.0002 32.4894 57.0002 32.0664C57.0002 31.6434 56.9169 31.2244 56.7549 30.8337C56.5929 30.4429 56.3554 30.0879 56.0562 29.7889" fill="white"/>
</g>
</g>
<defs>
<clipPath id="clip0_44_525">
<rect width="64" height="64" fill="white"/>
</clipPath>
</defs>
</svg>
