<svg width="64" height="64" viewBox="0 0 64 64" fill="none" xmlns="http://www.w3.org/2000/svg">
<g clip-path="url(#clip0_44_541)">
<path d="M49 0H15C6.71573 0 0 6.71573 0 15V49C0 57.2843 6.71573 64 15 64H49C57.2843 64 64 57.2843 64 49V15C64 6.71573 57.2843 0 49 0Z" fill="#F4F4ED"/>
<path fill-rule="evenodd" clip-rule="evenodd" d="M19.0163 10.75C23.5818 10.75 27.2825 14.4509 27.2825 19.0163C27.2825 23.5818 23.5818 27.2825 19.0163 27.2825C14.4509 27.2825 10.75 23.5818 10.75 19.0163C10.75 14.4509 14.4509 10.75 19.0163 10.75Z" stroke="#2088FF" stroke-width="1.5" stroke-linecap="round" stroke-linejoin="round"/>
<path fill-rule="evenodd" clip-rule="evenodd" d="M30.9566 27.2825C34.0001 27.2825 36.4676 29.75 36.4676 32.7935C36.4676 35.837 34.0001 38.3042 30.9566 38.3042C27.9131 38.3042 25.4458 35.837 25.4458 32.7935C25.4458 29.75 27.9131 27.2825 30.9566 27.2825Z" stroke="#2088FF" stroke-width="1.5" stroke-linecap="round" stroke-linejoin="round"/>
<path fill-rule="evenodd" clip-rule="evenodd" d="M30.9566 41.9783C34.0001 41.9783 36.4676 44.4455 36.4676 47.4893C36.4676 50.5328 34.0001 53 30.9566 53C27.9131 53 25.4458 50.5328 25.4458 47.4893C25.4458 44.4455 27.9131 41.9783 30.9566 41.9783Z" stroke="#2088FF" stroke-width="1.5" stroke-linecap="round" stroke-linejoin="round"/>
<path fill-rule="evenodd" clip-rule="evenodd" d="M47.4893 41.9783C50.5328 41.9783 53 44.4455 53 47.4893C53 50.5328 50.5328 53 47.4893 53C44.4455 53 41.9783 50.5328 41.9783 47.4893C41.9783 44.4455 44.4455 41.9783 47.4893 41.9783Z" stroke="#79B8FF" stroke-width="1.5" stroke-linecap="round" stroke-linejoin="round"/>
<path d="M32.8269 31.514L30.0079 34.3293L28.6387 32.9648" stroke="#2088FF" stroke-width="1.5" stroke-linecap="round" stroke-linejoin="round"/>
<path fill-rule="evenodd" clip-rule="evenodd" d="M47.4893 27.2825C50.5328 27.2825 53 29.75 53 32.7935C53 35.837 50.5328 38.3042 47.4893 38.3042C44.4455 38.3042 41.9783 35.837 41.9783 32.7935C41.9783 29.75 44.4455 27.2825 47.4893 27.2825Z" stroke="#2088FF" stroke-width="1.5" stroke-linecap="round" stroke-linejoin="round"/>
<path d="M49.3594 31.514L46.5404 34.3293L45.1714 32.9648" stroke="#2088FF" stroke-width="1.5" stroke-linecap="round" stroke-linejoin="round"/>
<path d="M16.261 16.0883C16.261 15.3654 17.0574 14.9259 17.669 15.3111L22.3654 18.2696C22.9397 18.6314 22.9367 19.4696 22.3599 19.8273L17.6635 22.7393C17.0516 23.1187 16.261 22.6786 16.261 21.9587V16.0883Z" stroke="#2088FF" stroke-width="1.5" stroke-linecap="round" stroke-linejoin="round"/>
<path d="M18.0977 27.2825V41.0597C18.0977 44.6105 21.0159 47.489 24.527 47.489H25.4454" stroke="#2088FF" stroke-width="1.5" stroke-linecap="round" stroke-linejoin="round"/>
<path d="M25.3989 33.7117C25.9061 33.7117 26.3174 33.3007 26.3174 32.7932C26.3174 32.2859 25.9061 31.8749 25.3989 31.8749V33.7117ZM17.1794 27.3147C17.1794 30.8477 20.0435 33.7117 23.5765 33.7117V31.8749C21.058 31.8749 19.0164 29.8332 19.0164 27.3147H17.1794ZM23.5765 33.7117H25.3989V31.8749H23.5765V33.7117Z" fill="#2088FF"/>
<path d="M36.5178 32.7935H41.9778" stroke="#2088FF" stroke-width="1.5" stroke-linecap="round" stroke-linejoin="round"/>
<path fill-rule="evenodd" clip-rule="evenodd" d="M29.1194 46.5708C29.6262 46.5708 30.0379 46.9823 30.0379 47.4893C30.0379 47.9968 29.6262 48.4078 29.1194 48.4078C28.6127 48.4078 28.2009 47.9968 28.2009 47.4893C28.2009 46.9823 28.6127 46.5708 29.1194 46.5708Z" fill="#79B8FF"/>
<path fill-rule="evenodd" clip-rule="evenodd" d="M32.7935 46.5708C33.3002 46.5708 33.712 46.9823 33.712 47.4893C33.712 47.9968 33.3002 48.4078 32.7935 48.4078C32.2867 48.4078 31.875 47.9968 31.875 47.4893C31.875 46.9823 32.2867 46.5708 32.7935 46.5708Z" fill="#79B8FF"/>
<path d="M41.0643 47.4952L40.1343 47.5257" stroke="#79B8FF" stroke-width="1.5" stroke-linecap="round"/>
</g>
<defs>
<clipPath id="clip0_44_541">
<rect width="64" height="64" fill="white"/>
</clipPath>
</defs>
</svg>
