<svg width="64" height="64" viewBox="0 0 64 64" fill="none" xmlns="http://www.w3.org/2000/svg">
<g clip-path="url(#clip0_44_575)">
<path d="M49 0H15C6.71573 0 0 6.71573 0 15V49C0 57.2843 6.71573 64 15 64H49C57.2843 64 64 57.2843 64 49V15C64 6.71573 57.2843 0 49 0Z" fill="#F4F2ED"/>
<g clip-path="url(#clip1_44_575)">
<path d="M31.1509 31.0361H8.25C8.25078 32.3942 8.51939 33.7387 9.04047 34.9928C9.56154 36.2469 10.3248 37.3859 11.2867 38.3446C12.2485 39.3033 13.39 40.0629 14.6458 40.5799C15.9016 41.0969 17.247 41.3611 18.605 41.3575H22.8206V45.4286C22.8206 48.1654 23.9075 50.79 25.8423 52.7255C27.7771 54.6611 30.4013 55.749 33.138 55.75V33.0252C33.138 32.4977 32.9285 31.9918 32.5554 31.6187C32.1824 31.2457 31.6765 31.0361 31.149 31.0361H31.1509ZM42.4777 19.6441H19.6025C19.603 22.3811 20.6907 25.0059 22.6263 26.9411C24.5618 28.8763 27.1868 29.9634 29.9239 29.9634H34.1375V34.0366C34.1396 36.7731 35.2278 39.397 37.163 41.3318C39.0982 43.2667 41.7223 44.3544 44.4589 44.3559V21.6252C44.4589 21.0998 44.2501 20.5959 43.8786 20.2243C43.5071 19.8528 43.0031 19.6441 42.4777 19.6441ZM53.7966 8.25H30.9214C30.9214 10.9874 32.0088 13.6127 33.9444 15.5483C35.88 17.4839 38.5053 18.5714 41.2427 18.5714H45.4564V22.6425C45.4584 25.3737 46.543 27.9928 48.4724 29.9259C50.4018 31.859 53.0188 32.9486 55.75 32.9559V10.2391C55.7521 9.71703 55.5481 9.21524 55.1824 8.84279C54.8166 8.47033 54.3186 8.2573 53.7966 8.25Z" fill="#0052CC"/>
</g>
</g>
<defs>
<clipPath id="clip0_44_575">
<rect width="64" height="64" fill="white"/>
</clipPath>
<clipPath id="clip1_44_575">
<rect width="47.5" height="47.5" fill="white" transform="translate(8.25 8.25)"/>
</clipPath>
</defs>
</svg>
