<svg width="64" height="64" viewBox="0 0 64 64" fill="none" xmlns="http://www.w3.org/2000/svg">
<g clip-path="url(#clip0_44_474)">
<path d="M49 0H15C6.71573 0 0 6.71573 0 15V49C0 57.2843 6.71573 64 15 64H49C57.2843 64 64 57.2843 64 49V15C64 6.71573 57.2843 0 49 0Z" fill="#F4F2ED"/>
</g>
<g clip-path="url(#clip1_44_474)">
<path d="M13.6635 23.9564H17.1538V35.6432C17.1795 36.6288 16.931 37.602 16.4363 38.4537C15.9553 39.2461 15.2599 39.8848 14.4311 40.2956C13.5045 40.7456 12.4847 40.9684 11.4556 40.9457C10.5163 40.959 9.58458 40.775 8.72032 40.4055C7.9275 40.0645 7.25337 39.4949 6.78336 38.7689C6.30507 38.0379 6.06592 37.116 6.06592 36.0033H9.57949C9.59033 36.6677 9.7821 37.1862 10.1552 37.5535C10.352 37.7411 10.5845 37.8868 10.8388 37.9818C11.0931 38.0768 11.3639 38.1191 11.635 38.1062C12.9765 38.1062 13.6527 37.2852 13.6635 35.6432V23.9564ZM24.8984 40.9618C23.6321 40.9618 22.5386 40.6905 21.618 40.148C20.7029 39.6124 19.9621 38.8219 19.4854 37.8722C18.967 36.8186 18.7099 35.6549 18.7358 34.4801C18.7089 33.3 18.9661 32.1308 19.4854 31.0718C19.9627 30.1226 20.7033 29.3323 21.6179 28.7961C22.6185 28.2334 23.7518 27.9522 24.8984 27.9822C26.0455 27.9524 27.1793 28.2335 28.1807 28.7961C29.095 29.3321 29.8351 30.1225 30.3114 31.0718C30.8314 32.1307 31.0891 33.2999 31.0629 34.4801C31.0882 35.6551 30.8304 36.8188 30.3114 37.8722C29.8355 38.8219 29.0954 39.6124 28.1807 40.148C27.2588 40.6917 26.1647 40.963 24.8984 40.9618ZM28.8693 23.9564V25.8469H20.9292V23.9564H28.8693ZM24.9235 38.2611C25.3064 38.2768 25.6865 38.1897 26.0246 38.0087C26.3627 37.8276 26.6465 37.5593 26.8468 37.2314L26.8768 37.1808C27.3191 36.4607 27.5403 35.5527 27.5403 34.4567C27.5403 33.3974 27.332 32.5119 26.9153 31.8002L26.8713 31.7272C26.675 31.3853 26.3892 31.1038 26.0449 30.9134C25.7006 30.723 25.3109 30.6308 24.9181 30.6469C24.5323 30.6305 24.149 30.7173 23.8075 30.8984C23.4661 31.0795 23.1787 31.3485 22.9749 31.6778L22.9452 31.7272C22.4992 32.4474 22.2762 33.3573 22.2762 34.4567C22.2762 35.5195 22.4846 36.4034 22.9013 37.1085L22.9452 37.1808C23.1401 37.5145 23.4195 37.7904 23.7552 37.9805C24.0908 38.1705 24.4705 38.2679 24.8558 38.2628L24.9235 38.2611ZM39.48 28.1461V30.7658H37.1234V36.8621C37.1234 37.3423 37.2322 37.6664 37.4498 37.8344C37.6802 38.0013 37.9573 38.0906 38.2414 38.0897L38.2981 38.0882C38.4618 38.0885 38.6251 38.0735 38.786 38.0433L39.1608 37.9749L39.699 40.5693L39.565 40.6084C39.4054 40.6536 39.2081 40.7048 38.9653 40.7602C38.6293 40.8325 38.2878 40.8763 37.9445 40.8911L37.8157 40.8951C36.5542 40.9516 35.542 40.678 34.7792 40.0742C34.0336 39.4841 33.6575 38.5915 33.6508 37.3962L33.651 30.7657H31.9382V28.146H33.651V25.1338H37.1234V28.146L39.48 28.1461ZM44.807 40.9546C43.6113 40.9546 42.6195 40.6407 41.8314 40.0129C41.0434 39.3851 40.6494 38.4495 40.6495 37.2061C40.6495 36.2686 40.8695 35.5322 41.3095 34.9969C41.7661 34.45 42.3664 34.0426 43.0421 33.8211C43.7876 33.5671 44.5608 33.4039 45.3451 33.335C46.1291 33.2726 46.908 33.1577 47.6768 32.9912C48.1455 32.8712 48.3792 32.6095 48.378 32.2061V32.1558C48.4043 31.7022 48.2265 31.2609 47.8938 30.953C47.5686 30.671 47.1106 30.5294 46.5199 30.5281C45.9917 30.5005 45.4686 30.6437 45.0276 30.9369C44.6729 31.1896 44.4142 31.5559 44.2941 31.9757L41.0818 31.7146C41.296 30.6065 41.9357 29.6274 42.8627 28.9887C43.8122 28.3189 45.0366 27.9834 46.5361 27.9822C47.4245 27.9753 48.3072 28.1252 49.1439 28.4252C49.9139 28.691 50.5938 29.1689 51.106 29.8043C51.6035 30.4297 51.8522 31.2411 51.8522 32.2386V40.717H48.5591V38.9741H48.4623C48.1472 39.5679 47.6741 40.0622 47.0957 40.4019C46.4894 40.7704 45.7265 40.9546 44.807 40.9546ZM45.8007 38.5474C46.4879 38.5742 47.1592 38.3358 47.6768 37.8813C47.9038 37.6825 48.0865 37.4378 48.2129 37.1633C48.3394 36.8887 48.4067 36.5905 48.4104 36.288L48.4103 34.8907C48.2149 35.0069 48.0015 35.0897 47.779 35.1355C47.4769 35.2095 47.1717 35.2695 46.8642 35.3155L46.5519 35.3637C46.3517 35.3954 46.1671 35.4254 45.9962 35.4506C45.4731 35.5078 44.97 35.6845 44.5255 35.9673C44.3441 36.0898 44.1974 36.2573 44.0997 36.4536C44.0019 36.6498 43.9564 36.8681 43.9677 37.0873C43.9568 37.2963 43.9983 37.5048 44.0886 37.6936C44.1788 37.8823 44.3149 38.0453 44.4842 38.1675C44.8512 38.4153 45.2833 38.5479 45.7255 38.5484L45.8007 38.5474ZM56.1126 26.5258L56.051 26.5256C55.5593 26.5337 55.0842 26.3468 54.729 26.0054C54.553 25.8494 54.4125 25.6572 54.3168 25.4419C54.2212 25.2266 54.1728 24.9933 54.1749 24.7576C54.1728 24.5224 54.2213 24.2896 54.3169 24.0749C54.4125 23.8603 54.5531 23.6688 54.729 23.5135C55.4811 22.8288 56.6279 22.8288 57.38 23.5135C57.5559 23.6688 57.6965 23.8603 57.7921 24.0749C57.8877 24.2896 57.9362 24.5224 57.9341 24.7576C57.9361 24.9836 57.8916 25.2077 57.8035 25.4157C57.7153 25.6237 57.5855 25.8113 57.4219 25.9667L57.38 26.0054C57.0381 26.3331 56.5854 26.519 56.1127 26.5258M54.3131 40.717V28.1461H57.7854V40.717H54.3131Z" fill="black"/>
</g>
<defs>
<clipPath id="clip0_44_474">
<rect width="64" height="64" fill="white"/>
</clipPath>
<clipPath id="clip1_44_474">
<rect width="52" height="18" fill="white" transform="translate(6 23)"/>
</clipPath>
</defs>
</svg>
