<svg width="64" height="64" viewBox="0 0 64 64" fill="none" xmlns="http://www.w3.org/2000/svg">
<g clip-path="url(#clip0_44_558)">
<path d="M49 0H15C6.71573 0 0 6.71573 0 15V49C0 57.2843 6.71573 64 15 64H49C57.2843 64 64 57.2843 64 49V15C64 6.71573 57.2843 0 49 0Z" fill="#F4F2ED"/>
<g clip-path="url(#clip1_44_558)">
<path d="M18.6462 18.2016C19.9672 19.2747 20.4631 19.1933 22.9458 19.0268L46.3473 17.6225C46.8432 17.6225 46.4305 17.1267 46.2659 17.0452L42.3771 14.2349C41.6334 13.6576 40.6399 12.9953 38.7381 13.16L16.0802 14.814C15.255 14.8954 15.0886 15.3098 15.4179 15.6392L18.6462 18.2016ZM20.0504 23.6558V48.2774C20.0504 49.6002 20.711 50.0961 22.2002 50.0128L47.9181 48.5253C49.4073 48.4439 49.5738 47.5337 49.5738 46.4588V22.0018C49.5738 20.9287 49.1612 20.3496 48.2492 20.4311L21.3733 22.0018C20.3816 22.085 20.0504 22.5826 20.0504 23.6558ZM45.4389 24.975C45.6036 25.7188 45.4389 26.4625 44.6951 26.5475L43.4555 26.7954V44.9713C42.3789 45.5503 41.3872 45.8815 40.5602 45.8815C39.2357 45.8815 38.9045 45.4671 37.9128 44.2293L29.8077 31.5041V43.8149L32.3719 44.3958C32.3719 44.3958 32.3719 45.8833 30.3036 45.8833L24.5979 46.2126C24.4333 45.8833 24.5979 45.0563 25.177 44.8916L26.6645 44.479V28.1997L24.6015 28.0333C24.435 27.2895 24.8494 26.2164 26.0058 26.1332L32.1258 25.7206L40.562 38.6104V27.2063L38.4104 26.9601C38.2458 26.0499 38.9063 25.3894 39.7333 25.3079L45.4389 24.975ZM14.1784 12.5827L37.7482 10.8473C40.6417 10.5994 41.3872 10.7641 43.2059 12.0869L50.7301 17.3746C51.9697 18.2831 52.3841 18.531 52.3841 19.5226V48.5253C52.3841 50.3422 51.7236 51.4189 49.4091 51.5818L22.0356 53.2358C20.3001 53.319 19.4714 53.0711 18.5612 51.9129L13.0202 44.7234C12.0286 43.4005 11.616 42.4107 11.616 41.2525V15.4727C11.616 13.987 12.2783 12.7457 14.1784 12.5827Z" fill="black"/>
</g>
</g>
<defs>
<clipPath id="clip0_44_558">
<rect width="64" height="64" fill="white"/>
</clipPath>
<clipPath id="clip1_44_558">
<rect width="42.5" height="42.5" fill="white" transform="translate(10.75 10.75)"/>
</clipPath>
</defs>
</svg>
