<svg width="64" height="64" viewBox="0 0 64 64" fill="none" xmlns="http://www.w3.org/2000/svg">
<g clip-path="url(#clip0_43_539)">
<path d="M49 0H15C6.71573 0 0 6.71573 0 15V49C0 57.2843 6.71573 64 15 64H49C57.2843 64 64 57.2843 64 49V15C64 6.71573 57.2843 0 49 0Z" fill="#F4F2ED"/>
<path d="M32.0002 36.7378C34.5762 36.7378 36.6642 34.6495 36.6642 32.0738C36.6642 29.498 34.5762 27.4098 32.0002 27.4098C29.4244 27.4098 27.3362 29.498 27.3362 32.0738C27.3362 34.6495 29.4244 36.7378 32.0002 36.7378Z" fill="#00D8FF"/>
<path fill-rule="evenodd" clip-rule="evenodd" d="M32.0005 22.5908C38.2625 22.5908 44.0797 23.4894 48.466 24.9994C53.7507 26.8187 57 29.5765 57 32.0737C57 34.676 53.5565 37.6057 47.8812 39.486C43.5907 40.9075 37.9447 41.6495 32.0005 41.6495C25.906 41.6495 20.1347 40.953 15.7958 39.4702C10.3064 37.594 7 34.6265 7 32.0737C7 29.5967 10.1024 26.8602 15.3129 25.0437C19.7154 23.5088 25.6763 22.5908 31.9995 22.5908H32.0005Z" stroke="#00D8FF" stroke-width="2"/>
<path fill-rule="evenodd" clip-rule="evenodd" d="M23.7453 27.3595C26.8738 21.9351 30.558 17.3446 34.0575 14.2993C38.2735 10.6302 42.286 9.1932 44.449 10.4406C46.7033 11.7406 47.521 16.1874 46.3148 22.0428C45.4035 26.4698 43.225 31.7312 40.2553 36.8807C37.2105 42.1602 33.7243 46.8118 30.2725 49.8288C25.9048 53.6468 21.6821 55.0285 19.4708 53.7533C17.3251 52.5168 16.5045 48.4615 17.5339 43.0402C18.4036 38.4595 20.5863 32.8373 23.7443 27.3595H23.7453Z" stroke="#00D8FF" stroke-width="2"/>
<path fill-rule="evenodd" clip-rule="evenodd" d="M23.7532 36.8945C20.6159 31.476 18.48 25.9905 17.5884 21.438C16.5152 15.9528 17.274 11.7589 19.4351 10.5079C21.6872 9.20412 25.9481 10.7165 30.4186 14.686C33.7986 17.687 37.2694 22.2013 40.2476 27.3458C43.3011 32.6203 45.5896 37.964 46.4799 42.461C47.6064 48.152 46.6946 52.5003 44.4854 53.779C42.3419 55.02 38.4191 53.7063 34.2364 50.1068C30.7024 47.0658 26.9214 42.367 23.7532 36.8945Z" stroke="#00D8FF" stroke-width="2"/>
</g>
<defs>
<clipPath id="clip0_43_539">
<rect width="64" height="64" fill="white"/>
</clipPath>
</defs>
</svg>
