<svg width="64" height="64" viewBox="0 0 64 64" fill="none" xmlns="http://www.w3.org/2000/svg">
<g clip-path="url(#clip0_43_527)">
<path d="M49 0H15C6.71573 0 0 6.71573 0 15V49C0 57.2843 6.71573 64 15 64H49C57.2843 64 64 57.2843 64 49V15C64 6.71573 57.2843 0 49 0Z" fill="#007ACC"/>
<path d="M14.1529 32.2122L14.1326 34.8332H18.2976H22.4627V46.6682V58.503H25.4088H28.3548V46.6682V34.8332H32.5198H36.6848V32.263C36.6848 30.8407 36.6546 29.6522 36.6138 29.6217C36.5833 29.5812 31.5141 29.5607 25.3681 29.571L14.1834 29.6015L14.1529 32.2122Z" fill="white"/>
<path d="M51.6417 29.5269C53.267 29.9334 54.5065 30.6547 55.6442 31.8329C56.2335 32.4629 57.107 33.6109 57.1782 33.8852C57.1985 33.9664 54.415 35.8357 52.7287 36.8819C52.6677 36.9227 52.4237 36.6584 52.1495 36.2522C51.3267 35.0534 50.4632 34.5352 49.1425 34.4439C47.2022 34.3117 45.9527 35.3277 45.963 37.0242C45.963 37.5219 46.034 37.8164 46.2372 38.2229C46.6637 39.1067 47.4562 39.6349 49.9452 40.7117C54.5267 42.6827 56.4872 43.9829 57.7065 45.8317C59.0677 47.8939 59.3725 51.1854 58.448 53.6337C57.4322 56.2952 54.9127 58.1034 51.3672 58.7029C50.2702 58.8959 47.6695 58.8654 46.4912 58.6522C43.921 58.1949 41.483 56.9252 39.9795 55.2592C39.3902 54.6089 38.2422 52.9124 38.3135 52.7904C38.3437 52.7499 38.608 52.5874 38.9025 52.4147C39.187 52.2522 40.264 51.6324 41.2797 51.0432L43.1185 49.9764L43.5045 50.5454C44.043 51.3682 45.2212 52.4959 45.9325 52.8717C47.9742 53.9487 50.7782 53.7962 52.1597 52.5569C52.749 52.0184 52.9927 51.4597 52.9927 50.6369C52.9927 49.8952 52.9012 49.5702 52.5152 49.0114C52.0175 48.3004 51.0017 47.7009 48.1165 46.4514C44.815 45.0292 43.3927 44.1454 42.0925 42.7434C41.3407 41.9309 40.6295 40.6304 40.335 39.5434C40.0912 38.6394 40.0302 36.3739 40.2232 35.4597C40.9037 32.2699 43.3115 30.0452 46.7857 29.3847C47.9135 29.1714 50.5342 29.2527 51.6417 29.5269Z" fill="white"/>
</g>
<defs>
<clipPath id="clip0_43_527">
<rect width="64" height="64" fill="white"/>
</clipPath>
</defs>
</svg>
