<svg width="64" height="64" viewBox="0 0 64 64" fill="none" xmlns="http://www.w3.org/2000/svg">
<g clip-path="url(#clip0_43_489)">
<path d="M49 0H15C6.71573 0 0 6.71573 0 15V49C0 57.2843 6.71573 64 15 64H49C57.2843 64 64 57.2843 64 49V15C64 6.71573 57.2843 0 49 0Z" fill="#E14E1D"/>
<path d="M12 9.5L14.1524 33.6483H41.83L40.9012 44.0057L31.9897 46.4152L23.095 44.0093L22.5003 37.3587H14.4847L15.6309 50.179L31.9877 54.722L48.3652 50.179L50.561 25.6637H21.456L20.7253 17.4862H51.2603H51.2848L52 9.5H12Z" fill="white"/>
<path d="M32 9.5H12L14.1524 33.6482H32V25.6637H21.456L20.7253 17.4862H32V9.5Z" fill="#EBEBEB"/>
<path d="M31.9999 46.4118L31.9897 46.4153L23.0949 44.0093L22.5002 37.3588H14.4846L15.6308 50.179L31.9877 54.722L31.9999 54.7185V46.4118Z" fill="#EBEBEB"/>
</g>
<defs>
<clipPath id="clip0_43_489">
<rect width="64" height="64" fill="white"/>
</clipPath>
</defs>
</svg>
