<svg width="64" height="64" viewBox="0 0 64 64" fill="none" xmlns="http://www.w3.org/2000/svg">
<g clip-path="url(#clip0_43_522)">
<path d="M49 0H15C6.71573 0 0 6.71573 0 15V49C0 57.2843 6.71573 64 15 64H49C57.2843 64 64 57.2843 64 49V15C64 6.71573 57.2843 0 49 0Z" fill="#F0DB4F"/>
<path d="M16.828 53.483L21.7257 50.519C22.6706 52.1942 23.5301 53.6117 25.5918 53.6117C27.5681 53.6117 28.8141 52.8387 28.8141 49.8317V29.3822H34.8286V49.9167C34.8286 56.146 31.1771 58.9815 25.8496 58.9815C21.0384 58.9815 18.2455 56.4897 16.8279 53.4825" fill="#323330"/>
<path d="M38.0952 52.8385L42.9922 50.0032C44.2815 52.1085 45.957 53.655 48.921 53.655C51.4132 53.655 53.0022 52.409 53.0022 50.6905C53.0022 48.6285 51.3697 47.898 48.6202 46.6955L47.117 46.0507C42.7777 44.2037 39.8992 41.8837 39.8992 36.9862C39.8992 32.4752 43.3362 29.0382 48.7065 29.0382C52.53 29.0382 55.2795 30.3702 57.2555 33.85L52.5727 36.8572C51.5415 35.01 50.425 34.2797 48.7065 34.2797C46.945 34.2797 45.828 35.3967 45.828 36.8572C45.828 38.6615 46.945 39.392 49.5225 40.5092L51.026 41.1535C56.1382 43.3447 59.0167 45.5782 59.0167 50.6045C59.0167 56.018 54.7637 58.982 49.05 58.982C43.4652 58.982 39.8565 56.3185 38.0952 52.8385Z" fill="#323330"/>
</g>
<defs>
<clipPath id="clip0_43_522">
<rect width="64" height="64" fill="white"/>
</clipPath>
</defs>
</svg>
