<svg width="64" height="64" viewBox="0 0 64 64" fill="none" xmlns="http://www.w3.org/2000/svg">
<g clip-path="url(#clip0_44_480)">
<path d="M49 0H15C6.71573 0 0 6.71573 0 15V49C0 57.2843 6.71573 64 15 64H49C57.2843 64 64 57.2843 64 49V15C64 6.71573 57.2843 0 49 0Z" fill="#99424F"/>
<path d="M53.3382 31.6238C53.3382 28.6125 51.2682 26.0792 48.489 25.3555L54.7135 7H23.8653L30.1045 25.4135C27.4118 26.1952 25.4288 28.685 25.4288 31.638C25.4288 33.8095 26.5143 35.7347 28.1645 36.9217C27.5133 37.8482 26.7605 38.7025 25.9063 39.513C24.2995 41.0185 22.519 42.1765 20.5937 42.9437C18.8566 41.7712 18.1038 39.7013 18.7842 37.8483C21.4333 37.0378 23.3586 34.5623 23.3586 31.6525C23.3586 28.077 20.4489 25.1817 16.8879 25.1817C13.3123 25.1817 10.4026 28.0915 10.4026 31.667C10.4026 33.433 11.1264 35.0545 12.2845 36.2125C12.1832 36.4153 12.0818 36.6177 11.9805 36.835C11.0106 38.8327 9.91043 41.091 9.49063 43.6242C8.651 48.6908 10.0262 52.7585 13.3412 55.0602C15.2086 56.3485 17.2642 57 19.479 57C23.2862 57 27.1513 55.0893 30.886 53.2363C33.5498 51.919 36.3 50.5438 39.007 49.8778C40.006 49.6318 41.0482 49.487 42.1485 49.3278C44.3777 49.0093 46.6795 48.6763 48.7495 47.4748C51.167 46.0708 52.8172 43.7255 53.295 41.033C53.6567 38.963 53.295 36.8785 52.3685 35.0545C52.991 34.0555 53.3382 32.883 53.3382 31.6238ZM50.5155 31.6238C50.5155 33.6357 48.8797 35.2715 46.8675 35.2715C44.8555 35.2715 43.2197 33.6357 43.2197 31.6238C43.2197 30.9722 43.3932 30.3498 43.6973 29.8143C43.8133 29.6115 43.958 29.4088 44.1027 29.235C44.2475 29.0615 44.4212 28.9023 44.6092 28.7575L44.6237 28.743C44.7395 28.656 44.87 28.5693 45.0003 28.4823C45.0003 28.4823 45.0148 28.4823 45.0148 28.4678C45.0725 28.439 45.1305 28.3955 45.1883 28.3665C45.2028 28.3665 45.2173 28.352 45.2318 28.352C45.2897 28.323 45.362 28.2942 45.4345 28.2652C45.5068 28.2362 45.5793 28.2072 45.637 28.1782C45.6515 28.1782 45.666 28.1637 45.6805 28.1637C45.7385 28.1495 45.7963 28.1205 45.8543 28.106C45.8688 28.106 45.8978 28.0915 45.9123 28.0915C45.9845 28.077 46.0425 28.0625 46.1147 28.048H46.1292L46.3465 28.0047C46.361 28.0047 46.3898 28.0047 46.4043 27.9902C46.4622 27.9902 46.5202 27.9757 46.578 27.9757H46.6505C46.7228 27.9757 46.7952 27.9613 46.882 27.9613H47.0703C47.1283 27.9613 47.1715 27.9613 47.2295 27.9757H47.2585C47.3742 27.9902 47.49 28.0048 47.6058 28.0335C49.256 28.381 50.5155 29.8575 50.5155 31.6238ZM27.904 9.8952H50.6748L45.449 25.312C45.2318 25.3555 45.0148 25.428 44.7975 25.5002L39.2968 14.2814L33.7813 25.428C33.5643 25.3555 33.3325 25.312 33.101 25.2687L27.904 9.8952ZM38.2543 30.3643C37.9793 29.0035 37.2845 27.7875 36.3 26.89L39.2968 20.839L42.322 27.0203C41.4245 27.9177 40.7733 29.0615 40.5125 30.3643H38.2543ZM31.002 28.077C31.0743 28.0625 31.1323 28.048 31.2045 28.0335H31.248C31.306 28.019 31.3638 28.019 31.4218 28.0047H31.4795C31.5375 28.0047 31.581 27.9902 31.6388 27.9902H32.2035C32.2613 27.9902 32.3048 28.0047 32.3483 28.0047C32.3773 28.0047 32.3915 28.0047 32.4205 28.019C32.4785 28.0335 32.522 28.0335 32.5798 28.048C32.5943 28.048 32.6088 28.048 32.6378 28.0625C32.71 28.077 32.7825 28.0915 32.8403 28.106H32.8548C32.9128 28.1205 32.9708 28.135 33.0285 28.1637C33.043 28.1637 33.0575 28.1782 33.0865 28.1782C33.13 28.1927 33.1878 28.2073 33.2313 28.2362C33.2458 28.2362 33.2603 28.2507 33.2748 28.2507C33.3325 28.2797 33.3905 28.2943 33.4483 28.323H33.4628C33.5353 28.352 33.593 28.381 33.651 28.4245H33.6655C33.7235 28.4535 33.7812 28.4967 33.8393 28.5257C33.8538 28.5257 33.8538 28.5403 33.8683 28.5403C33.926 28.5693 33.9695 28.6125 34.0275 28.6415L34.0418 28.656C34.2155 28.7863 34.3748 28.931 34.534 29.0758L34.5485 29.0903C34.6933 29.2495 34.838 29.4233 34.9538 29.6115C35.3303 30.1905 35.5473 30.8707 35.5473 31.6092C35.5473 33.6213 33.9115 35.257 31.8995 35.257C29.8873 35.257 28.2515 33.6213 28.2515 31.6092C28.237 29.9155 29.4095 28.4823 31.002 28.077ZM16.7576 27.9757C18.7697 27.9757 20.4055 29.6115 20.4055 31.6238C20.4055 33.6357 18.7697 35.2715 16.7576 35.2715C14.7454 35.2715 13.1096 33.6357 13.1096 31.6238C13.1096 29.6115 14.7454 27.9757 16.7576 27.9757ZM50.4287 40.5262C50.1102 42.3792 48.9665 44.0005 47.2873 44.9705C45.7095 45.8825 43.7697 46.172 41.7285 46.4615C40.614 46.6207 39.4415 46.7945 38.3123 47.0695C35.3013 47.8078 32.406 49.2552 29.5978 50.645C26.0078 52.4255 22.6203 54.1048 19.479 54.1048C17.8433 54.1048 16.3812 53.6415 14.9915 52.6717C11.8068 50.4712 11.966 46.3458 12.3424 44.0875C12.6898 41.974 13.6597 39.9908 14.5862 38.0945C14.6441 37.9785 14.6875 37.8773 14.7454 37.7615C15.0639 37.8773 15.3968 37.964 15.7443 38.022C15.1942 41.091 16.7576 44.2612 19.7975 45.8245L20.3476 46.114L20.9411 45.897C23.4744 44.9995 25.8195 43.5373 27.8895 41.583C29.0623 40.483 30.061 39.296 30.9005 38.0075C31.2335 38.0655 31.5665 38.08 31.8995 38.08C34.9105 38.08 37.4438 36.0097 38.1675 33.2305H40.5995C41.3232 36.0243 43.8565 38.08 46.8675 38.08C48.069 38.08 49.1838 37.747 50.1393 37.1825C50.5155 38.268 50.6312 39.3972 50.4287 40.5262Z" fill="white"/>
<path fill-rule="evenodd" clip-rule="evenodd" d="M26.732 18.8091C25.9541 19.588 26.246 19.3978 26.8252 18.75L26.732 18.8091ZM35.1471 19.1949C34.2458 20.5492 30.9958 21.6816 30.5866 21.7693C32.5416 21.4032 34.3638 20.1871 35.6461 18.7623C35.4423 18.8531 35.3213 19.0665 35.1471 19.1949ZM26.1974 19.6346C26.6832 20.8026 28.4495 21.5788 29.3078 21.7598C28.136 21.3823 26.7567 20.7127 26.1974 19.6346ZM35.4501 20.3101C35.2048 20.5996 34.3313 21.0329 33.8708 21.4575C32.883 22.1861 31.8613 22.8631 30.8848 23.6099C31.5065 23.5831 33.3286 22.2221 32.3946 23.6031C33.1861 24.9654 34.9093 25.9126 36.4806 25.8261C38.5556 25.5004 40.4691 24.3531 41.8446 22.7576C40.1748 24.4099 37.9673 25.9649 35.5246 25.7506C34.3423 25.4776 31.1118 23.8089 33.2728 22.6391C34.0348 22.0124 35.3486 21.684 35.4973 20.5827C35.4661 20.4452 35.7223 20.3109 35.4501 20.3101ZM29.5353 21.8409C30.3216 21.7382 30.3216 21.9436 29.5353 21.8409V21.8409ZM41.7861 23.7221C38.6663 25.8956 35.5918 28.1541 32.4991 30.3666C28.9941 32.8751 25.5041 35.3929 22 37.8994C23.3175 37.4551 24.6375 36.5876 25.9464 35.9884C27.7486 35.0349 29.6493 34.2816 31.3358 33.1234C34.6703 31.1604 38.1968 29.2901 40.7616 26.2869C41.3213 25.6304 41.8826 24.5736 41.9076 23.8629C41.8268 23.8856 41.8881 23.5786 41.7861 23.7221ZM31.1711 33.5014C30.6098 34.1356 30.3818 34.5889 30.9643 33.7824C30.9541 33.8759 31.4371 33.2816 31.1711 33.5014ZM39.7101 33.8049C38.2316 35.3639 36.0448 36.4884 33.9931 36.5641C36.3651 36.5814 38.505 35.1734 40.112 33.5124C40.0065 33.3849 39.7928 33.8094 39.7101 33.8049ZM40.1618 34.2949C35.1946 37.9109 30.0558 41.6616 25.0718 45.2646C25.857 45.5109 27.5665 45.6264 28.3466 44.6211C30.0068 43.4756 31.8731 42.6334 33.5386 41.4724C35.9503 39.9074 38.5326 38.1969 39.9023 35.5666C39.9676 35.2139 40.4523 34.5794 40.1618 34.2949ZM30.7086 34.5244C30.9391 35.4974 33.8206 36.6141 33.5081 36.4004C32.4456 36.0279 31.3916 35.4474 30.7086 34.5244Z" fill="#DC9624"/>
</g>
<defs>
<clipPath id="clip0_44_480">
<rect width="64" height="64" fill="white"/>
</clipPath>
</defs>
</svg>
