<svg width="64" height="64" viewBox="0 0 64 64" fill="none" xmlns="http://www.w3.org/2000/svg">
<g clip-path="url(#clip0_43_505)">
<path d="M49 0H15C6.71573 0 0 6.71573 0 15V49C0 57.2843 6.71573 64 15 64H49C57.2843 64 64 57.2843 64 49V15C64 6.71573 57.2843 0 49 0Z" fill="#CD6799"/>
<mask id="mask0_43_505" style="mask-type:luminance" maskUnits="userSpaceOnUse" x="7" y="13" width="50" height="38">
<path d="M57 13.25H7V50.7272H57V13.25Z" fill="white"/>
</mask>
<g mask="url(#mask0_43_505)">
<path d="M50.0267 34.7907C48.2832 34.7997 46.7682 35.2197 45.4994 35.8402C45.0339 34.9185 44.5684 34.097 44.4862 33.4945C44.3949 32.7917 44.2854 32.3627 44.3949 31.523C44.5044 30.6832 44.9974 29.4877 44.9882 29.3965C44.9792 29.305 44.8787 28.8762 43.8747 28.867C42.8707 28.858 42.0037 29.0587 41.9032 29.3235C41.8027 29.588 41.6112 30.1905 41.4834 30.8112C41.3099 31.724 39.4752 34.9825 38.4257 36.6892C38.0879 36.023 37.7959 35.4387 37.7319 34.9732C37.6407 34.2705 37.5312 33.8415 37.6407 33.0017C37.7502 32.162 38.2432 30.9662 38.2339 30.875C38.2249 30.7837 38.1244 30.3547 37.1204 30.3457C36.1164 30.3365 35.2492 30.5372 35.1489 30.802C35.0484 31.0667 34.9389 31.6875 34.7289 32.2897C34.5192 32.8922 32.0822 38.3322 31.4432 39.7377C31.1147 40.4587 30.8317 41.0337 30.6309 41.4262C30.6309 41.4262 30.6217 41.4537 30.5944 41.4992C30.4209 41.837 30.3204 42.0195 30.3204 42.0195C30.3204 42.0195 30.3204 42.0195 30.3204 42.0287C30.1837 42.2752 30.0374 42.5032 29.9644 42.5032C29.9097 42.5032 29.8094 41.8462 29.9827 40.9517C30.3479 39.0622 31.2149 36.1232 31.2059 36.023C31.2059 35.9682 31.3702 35.457 30.6399 35.1922C29.9279 34.9275 29.6724 35.3657 29.6084 35.3657C29.5447 35.3657 29.4989 35.521 29.4989 35.521C29.4989 35.521 30.2932 32.2167 27.9839 32.2167C26.5417 32.2167 24.552 33.7957 23.5662 35.2197C22.9455 35.5575 21.6221 36.2785 20.2073 37.0542C19.6688 37.3555 19.112 37.6567 18.5918 37.9397C18.5553 37.9032 18.5188 37.8575 18.4822 37.821C15.6893 34.8362 10.5231 32.728 10.7422 28.721C10.8243 27.2605 11.3263 23.4271 20.6637 18.7721C28.3489 14.9842 34.4644 16.0338 35.5232 18.3613C37.0382 21.6837 32.2464 27.8537 24.3055 28.7482C21.2752 29.086 19.6871 27.9177 19.2855 27.4797C18.8656 27.0232 18.8017 26.996 18.6465 27.0872C18.391 27.224 18.5553 27.6347 18.6465 27.872C18.8838 28.4927 19.8605 29.588 21.5125 30.1265C22.9729 30.6012 26.5234 30.866 30.8224 29.2047C35.6327 27.3427 39.3932 22.1675 38.2887 17.8319C37.1844 13.4325 29.8824 11.9813 22.9729 14.4365C18.8656 15.8969 14.4114 18.197 11.2077 21.1908C7.40157 24.7505 6.79914 27.8447 7.04559 29.1407C7.93094 33.741 14.2745 36.7347 16.8119 38.9527C16.6841 39.0257 16.5655 39.0897 16.4651 39.1445C15.1964 39.7742 10.3588 42.3025 9.15402 44.977C7.78492 48.0072 9.37309 50.1795 10.4227 50.4715C13.6812 51.3752 17.031 49.7505 18.8291 47.067C20.6272 44.3835 20.4081 40.897 19.5775 39.2997C19.5684 39.2815 19.5593 39.2632 19.541 39.245C19.8696 39.0532 20.2073 38.8525 20.5359 38.6607C21.184 38.2775 21.8229 37.9215 22.3705 37.6292C22.0602 38.4782 21.832 39.4912 21.7225 40.9517C21.5856 42.6677 22.2884 44.8947 23.2102 45.771C23.621 46.1542 24.1047 46.1635 24.4151 46.1635C25.4922 46.1635 25.9759 45.269 26.5144 44.2102C27.1714 42.914 27.7649 41.408 27.7649 41.408C27.7649 41.408 27.0254 45.479 29.0334 45.479C29.7637 45.479 30.5029 44.5297 30.8317 44.046C30.8317 44.055 30.8317 44.055 30.8317 44.055C30.8317 44.055 30.8499 44.0277 30.8864 43.9637C30.9594 43.845 31.0049 43.772 31.0049 43.772C31.0049 43.772 31.0049 43.763 31.0049 43.7537C31.2972 43.2427 31.9542 42.0835 32.9309 40.1575C34.1904 37.675 35.4044 34.5717 35.4044 34.5717C35.4044 34.5717 35.5139 35.3292 35.8882 36.5887C36.1072 37.3282 36.5637 38.1405 36.9287 38.9255C36.6367 39.3362 36.4542 39.5642 36.4542 39.5642C36.4542 39.5642 36.4542 39.5642 36.4632 39.5735C36.2259 39.8837 35.9704 40.2215 35.6874 40.55C34.6924 41.7367 33.5059 43.0967 33.3417 43.4892C33.1499 43.9547 33.1957 44.2922 33.5607 44.5662C33.8254 44.767 34.2999 44.7942 34.7837 44.767C35.6782 44.703 36.3082 44.484 36.6184 44.347C37.1022 44.1737 37.6682 43.909 38.1974 43.5165C39.1742 42.7955 39.7674 41.764 39.7127 40.404C39.6852 39.6555 39.4387 38.9072 39.1377 38.2042C39.2289 38.0765 39.3109 37.9487 39.4022 37.821C40.9449 35.5665 42.1404 33.093 42.1404 33.093C42.1404 33.093 42.2499 33.8505 42.6242 35.1102C42.8067 35.749 43.1809 36.4427 43.5097 37.1182C42.0584 38.2957 41.1639 39.6647 40.8444 40.5592C40.2694 42.2205 40.7167 42.9687 41.5654 43.1422C41.9489 43.2245 42.4964 43.042 42.8982 42.8685C43.4092 42.7042 44.0117 42.4212 44.5867 42.0012C45.5632 41.2802 46.5034 40.2762 46.4487 38.9162C46.4212 38.2957 46.2569 37.684 46.0287 37.0907C47.2609 36.5797 48.8492 36.2967 50.8754 36.534C55.2202 37.0452 56.0782 39.756 55.9137 40.897C55.7494 42.0377 54.8367 42.6585 54.5354 42.8502C54.2344 43.042 54.1339 43.1057 54.1614 43.2427C54.1979 43.4435 54.3439 43.4342 54.5994 43.3977C54.9554 43.334 56.8812 42.476 56.9634 40.3767C57.1004 37.6932 54.5447 34.7632 50.0267 34.7907ZM16.5107 46.0905C15.0686 47.6602 13.0606 48.2537 12.1935 47.7517C11.2625 47.213 11.6276 44.8947 13.3983 43.2335C14.4753 42.2205 15.8627 41.2802 16.7845 40.7052C16.9945 40.5775 17.3048 40.395 17.679 40.1667C17.7429 40.1302 17.7794 40.112 17.7794 40.112C17.8524 40.0662 17.9255 40.0207 17.9985 39.975C18.6465 42.3482 18.0259 44.4385 16.5107 46.0905ZM27.0072 38.9527C26.5052 40.176 25.4557 43.3065 24.8167 43.1332C24.269 42.987 23.9313 40.614 24.7071 38.2682C25.0997 37.0907 25.9302 35.6852 26.4139 35.1375C27.1989 34.2612 28.0659 33.9692 28.2759 34.3252C28.5407 34.7907 27.3177 38.186 27.0072 38.9527ZM35.6692 43.0967C35.4592 43.2062 35.2584 43.2792 35.1672 43.2245C35.1032 43.188 35.2584 43.042 35.2584 43.042C35.2584 43.042 36.3447 41.8735 36.7737 41.3442C37.0199 41.0337 37.3122 40.6687 37.6224 40.258C37.6224 40.2945 37.6224 40.3402 37.6224 40.3767C37.6224 41.7732 36.2717 42.7132 35.6692 43.0967ZM42.3504 41.5722C42.1952 41.4627 42.2227 41.0977 42.7429 39.9567C42.9437 39.5095 43.4184 38.7612 44.2307 38.04C44.3219 38.3322 44.3859 38.615 44.3767 38.8797C44.3677 40.6415 43.1079 41.2985 42.3504 41.5722Z" fill="white"/>
</g>
</g>
<defs>
<clipPath id="clip0_43_505">
<rect width="64" height="64" fill="white"/>
</clipPath>
</defs>
</svg>
