<svg width="64" height="64" viewBox="0 0 64 64" fill="none" xmlns="http://www.w3.org/2000/svg">
<g clip-path="url(#clip0_43_513)">
<path d="M49 0H15C6.71573 0 0 6.71573 0 15V49C0 57.2843 6.71573 64 15 64H49C57.2843 64 64 57.2843 64 49V15C64 6.71573 57.2843 0 49 0Z" fill="url(#paint0_linear_43_513)"/>
<path d="M2.87167 32.2697L15.4477 37.3657V40.933L0.560303 34.0352V31.9422L2.87167 32.2697ZM15.4477 28.084L2.88987 33.2525L0.560303 33.5075V31.3962L15.4477 24.5167V28.084Z" fill="white"/>
<path d="M60.3428 32.9977L47.4028 27.9565V24.4803L62.9453 31.3597V33.4892L60.3428 32.9977ZM47.4028 37.4385L60.3793 32.288L62.9453 31.9057V34.017L47.4028 40.9147V37.4385Z" fill="white"/>
<path fill-rule="evenodd" clip-rule="evenodd" d="M44.0193 15.2747C43.9473 16.4163 43.4331 17.6083 43.5763 18.7181C44.4746 20.3064 46.4516 20.5598 48.0826 20.6687C49.2126 20.8706 49.1983 20.1224 49.1226 19.2819C49.1271 17.9383 49.1316 16.5947 49.1363 15.2511C47.4306 15.2572 45.7243 15.2342 44.0193 15.2747ZM30.5691 18.4674C27.7921 18.9386 24.9771 20.2657 22.6669 21.8632C20.8074 23.3104 24.2632 24.713 25.5168 24.9474C28.0393 24.9782 30.2766 23.2768 31.9336 21.5107C32.4746 20.768 33.1503 19.6314 32.4706 18.7709C31.9516 18.3208 31.1968 18.43 30.5691 18.4674ZM36.4783 22.506C34.1951 22.9408 32.0226 23.882 30.1003 25.1922C28.6911 25.6347 27.5296 27.182 29.2758 27.9572C31.1096 29.4185 33.2348 29.0605 34.9236 28.074C36.4701 27.1547 38.1406 26.0205 38.8561 24.29C39.5318 22.3943 37.7883 22.3239 36.4783 22.506ZM42.9556 29.8517C42.5303 31.6277 40.7418 32.4352 39.7903 33.8425C39.0123 34.869 39.3726 36.0782 40.2583 36.8862C40.6896 37.7805 41.4456 38.2803 42.2563 37.5035C44.3443 36.084 44.9218 33.319 44.8351 30.9232C44.9893 29.9337 43.8541 30.8282 42.9556 29.8517ZM35.0098 33.1875C32.2371 33.662 29.4638 35.013 27.1526 36.608C25.3583 38.0532 28.7376 39.4027 30.0016 39.6167C32.5708 39.6205 34.8626 37.9648 36.4871 36.0842C37.0521 35.3375 37.7368 33.8872 36.6181 33.2935C36.1178 33.0815 35.5371 33.1437 35.0098 33.1875Z" fill="#B956A6"/>
<path fill-rule="evenodd" clip-rule="evenodd" d="M22.6668 21.8633C20.5344 22.7165 18.4771 23.7526 16.4459 24.8375C16.0683 26.2413 16.371 27.9795 16.2731 29.5188C16.2658 35.8478 16.2694 42.177 16.2682 48.506C17.8366 48.506 19.405 48.506 20.9735 48.506C21.9233 47.6115 23.1135 46.9568 24.1453 46.1445C28.1188 43.2948 32.091 40.434 36.0593 37.5923C36.3513 37.7235 36.1643 35.8745 35.5238 37.1588C34.006 38.587 31.9915 39.7618 29.8593 39.647C28.6493 39.249 26.6988 38.5738 26.6865 37.091C27.5383 36.0883 25.115 37.616 24.4521 37.8348C22.2964 38.8698 20.1918 40.0255 18.0318 41.0413C18.5511 40.4838 19.5222 39.964 20.2105 39.411C25.1288 35.8805 30.0458 32.3363 34.9758 28.8085C35.924 28.1428 36.84 27.4165 37.8175 26.7943C37.9068 27.139 38.0743 25.146 37.3473 26.373C35.8653 27.842 33.8663 28.9355 31.758 28.9505C30.5723 28.5905 28.0468 27.7298 28.609 26.1988C28.8833 25.6615 26.062 27.344 27.3085 26.3953C28.6353 25.4258 29.9725 24.4735 31.3095 23.5141C31.9848 23.4632 31.841 20.9551 30.9235 22.573C29.3823 23.9272 27.3573 25.1663 25.2345 24.8726C24.0421 24.5293 22.6112 23.8644 22.1779 22.6174C22.0343 22.3179 22.9807 21.8514 22.6668 21.8633ZM31.5015 23.4116C31.3833 23.7498 31.7158 23.2879 31.5015 23.4116V23.4116Z" fill="#FCCC44"/>
<path fill-rule="evenodd" clip-rule="evenodd" d="M44.9748 20.1873C44.3091 23.3666 43.5813 26.6937 42.9556 29.8517C44.7536 32.1177 44.9278 28.4202 45.2423 27.3747C45.7506 25.1894 46.3526 23.5394 46.4163 21.2768C46.5513 20.5048 45.6438 20.0371 44.9748 20.1873ZM47.0376 22.6803C46.9813 23.0063 47.1196 22.7416 47.0376 22.6803V22.6803ZM44.9401 29.8089C45.0266 29.6224 45.0266 29.9952 44.9401 29.8089V29.8089Z" fill="#62777F"/>
<path fill-rule="evenodd" clip-rule="evenodd" d="M46.154 20.5473C46.715 23.6981 44.8568 27.5255 44.249 30.496C45.629 29.4805 46.6953 24.873 46.9678 23.0696C47.038 22.8633 47.1245 22.3442 47.1433 22.3256C47.23 21.8877 48.0383 21.146 48.0825 20.6688C48.553 20.3367 45.77 20.2832 46.154 20.5473ZM45.0098 29.809C44.923 29.6225 44.923 29.9953 45.0098 29.809V29.809Z" fill="#4E5E67"/>
</g>
<defs>
<linearGradient id="paint0_linear_43_513" x1="0" y1="64" x2="64" y2="0" gradientUnits="userSpaceOnUse">
<stop stop-color="#DB7093"/>
<stop offset="1" stop-color="#F3B661"/>
</linearGradient>
<clipPath id="clip0_43_513">
<rect width="64" height="64" fill="white"/>
</clipPath>
</defs>
</svg>
